<svg width="808" height="808" viewBox="0 0 808 808" fill="none" xmlns="http://www.w3.org/2000/svg">
<g filter="url(#filter0_d_425_200)">
<rect x="4" width="800" height="800" rx="400" fill="url(#paint0_radial_425_200)"/>
</g>
<path opacity="0.919" fill-rule="evenodd" clip-rule="evenodd" d="M566.632 194.868C567.973 196.117 567.495 195.672 566.632 194.868C565.743 195.049 565.713 195.055 566.632 194.868C532.372 216.753 498.057 242.236 466.715 268.292C446.426 286.914 430.783 308.865 419.784 334.146C418.661 335.337 417.4 336.346 416 337.174C414.486 335.156 412.972 335.156 411.458 337.174C410.058 336.346 408.797 335.337 407.673 334.146C396.675 308.865 381.032 286.914 360.743 268.292C329.401 242.236 295.085 216.753 260.826 194.868C261.583 195.625 260.069 194.111 260.826 194.868C259.106 198.307 260.069 196.382 260.826 194.868C260.573 214.051 259.312 237.769 260.069 256.938C261.622 266.643 264.397 275.979 268.396 284.944C254.736 307.762 247.166 332.488 245.687 359.125C246.474 369.963 248.493 380.56 251.743 390.917C215.149 461.673 218.934 530.051 263.097 596.049C273.458 606.917 283.298 618.271 292.618 630.111C289.72 632.877 286.692 632.877 283.534 630.111C270.226 621.34 257.358 612.004 244.93 602.104C223.129 615.405 201.177 628.526 179.076 641.465C177.229 640.879 176.22 639.618 176.048 637.681C184.59 604.738 196.449 572.694 210.111 541.549C203.091 526.773 196.531 510.372 190.43 495.375C190.851 496.423 190.122 494.618 190.43 495.375C185.414 482.895 183.144 470.279 182.104 457.528C161.095 446.651 139.901 436.053 118.521 425.736C115.364 424.16 112.841 421.889 110.951 418.924C112.259 416.355 114.277 414.589 117.007 413.625C138.161 405.738 158.598 396.403 178.319 385.618C182.23 362.91 188.033 340.707 195.729 319.007C182.147 298.613 168.27 278.429 154.097 258.451C152.3 256.114 151.795 253.59 152.583 250.882C178.614 249.906 205.107 248.896 232.062 247.854C233.323 217.084 234.08 186.302 234.333 155.507C235.342 154.498 236.352 153.489 237.361 152.479C260.293 167.482 283.507 182.117 307 196.382C330.262 184.809 354.736 176.735 380.423 172.16C388.362 154.77 396.689 137.613 405.403 120.688C407.935 116.901 410.712 113.369 413.729 110.09C416.746 113.369 419.523 116.901 422.055 120.688C430.769 137.613 439.096 154.77 447.034 172.16C472.722 176.735 497.196 184.809 520.458 196.382C544.191 181.724 567.909 167.09 591.611 152.479C592.621 153.489 593.629 154.498 594.639 155.507C594.891 186.302 595.648 217.084 596.909 247.854C623.864 248.896 650.357 249.906 676.389 250.882C677.176 253.59 676.672 256.114 674.875 258.451C660.702 278.429 646.824 298.613 633.243 319.007C640.938 340.707 646.742 362.91 650.652 385.618C670.374 396.403 690.811 405.738 711.965 413.625C714.695 414.589 716.713 416.355 718.021 418.924C716.131 421.889 713.608 424.16 710.451 425.736C689.07 436.053 667.876 446.651 646.868 457.528C645.828 470.279 643.557 482.895 638.541 495.375C638.037 494.871 639.046 495.879 638.541 495.375C632.44 510.372 626.638 526.773 619.618 541.549C633.985 573.322 644.835 606.122 652.166 639.951C648.772 640.973 645.492 640.216 642.326 637.681C623.251 625.242 603.823 613.383 584.041 602.104C581.176 603.158 578.401 604.42 575.715 605.889C564.6 616.504 552.236 625.335 538.625 632.382C537.022 632.185 535.76 631.428 534.84 630.111C544.16 618.271 554 606.917 564.361 596.049C601.011 547.242 611.104 493.247 594.639 434.063C590.94 418.471 584.632 404.089 575.715 390.917C583.162 373.993 584.676 356.583 580.257 338.688C575.079 320.009 568.014 302.094 559.062 284.944C563.06 275.979 565.835 266.643 567.389 256.938C568.146 237.769 566.884 214.051 566.632 194.868ZM397.076 206.979C430.398 205.121 462.694 209.915 493.965 221.361C486.373 228.684 477.795 234.488 468.229 238.771C431.896 226.66 395.562 226.66 359.229 238.771C349.663 234.488 341.085 228.684 333.493 221.361C354.182 213.343 375.376 208.549 397.076 206.979Z" fill="#535353" fill-opacity="0.3"/>
<path opacity="0.01" fill-rule="evenodd" clip-rule="evenodd" d="M262.34 196.382C261.331 197.391 260.322 198.401 259.313 199.41C258.981 197.631 259.485 196.117 260.826 194.868C261.745 195.055 262.249 195.56 262.34 196.382Z" fill="black"/>
<path opacity="0.01" fill-rule="evenodd" clip-rule="evenodd" d="M565.118 196.382C565.209 195.56 565.713 195.055 566.632 194.868C567.973 196.117 568.478 197.631 568.146 199.41C567.136 198.401 566.128 197.391 565.118 196.382Z" fill="black"/>
<path opacity="0.915" fill-rule="evenodd" clip-rule="evenodd" d="M285.048 237.257C290.105 246.118 296.665 253.94 304.729 260.722C331.8 275.672 355.266 295.099 375.125 319.007C380.075 327.394 384.617 335.973 388.75 344.743C392.642 362.26 395.67 379.921 397.833 397.729C401.902 411.409 407.201 424.529 413.729 437.09C420.257 424.529 425.555 411.409 429.625 397.729C431.788 379.921 434.816 362.26 438.708 344.743C447.969 322.988 461.845 304.569 480.34 289.486C499.538 277.862 517.452 264.489 534.083 249.368C535.848 244.822 538.372 240.784 541.653 237.257C543.341 239.528 544.602 242.051 545.437 244.826C543.831 262.163 537.271 277.302 525.757 290.243C539.85 304.304 549.184 320.957 553.764 340.201C556.271 385.886 534.825 411.622 489.423 417.41C474.298 416.662 460.926 411.616 449.305 402.271C445.855 407.902 442.575 413.707 439.465 419.68C469.096 444.666 500.384 446.685 533.326 425.736C538.318 422.262 542.859 418.224 546.951 413.625C548.895 412.589 550.662 412.842 552.25 414.382C579.111 478.394 572.298 538.445 531.812 594.535C529.684 596.303 527.919 595.799 526.514 593.021C523.142 537.833 500.434 492.417 458.389 456.771C444.544 468.597 429.657 478.69 413.729 487.048C397.801 478.69 382.914 468.597 369.069 456.771C326.827 493.82 303.109 540.247 297.916 596.048C276.698 570.228 264.083 540.454 260.069 506.729C256.528 474.491 261.574 443.709 275.208 414.382C276.796 412.842 278.563 412.589 280.507 413.625C304.479 437.785 332.737 444.849 365.285 434.819C373.266 430.367 380.835 425.321 387.993 419.68C384.883 413.707 381.603 407.902 378.153 402.271C351.454 422.19 324.456 422.442 297.16 403.028C276.156 383.915 268.839 360.45 275.208 332.632C280.564 316.377 289.395 302.248 301.701 290.243C287.43 274.969 281.878 257.308 285.048 237.257ZM336.521 312.951C328.415 321.58 322.864 331.674 319.868 343.229C325.315 363.597 337.93 370.409 357.715 363.667C361.5 361.396 363.771 359.882 366.798 357.611C368.773 356.394 369.782 354.627 369.826 352.312C361.804 337.964 351.713 325.096 339.548 313.708C338.649 313.006 337.639 312.753 336.521 312.951ZM487.91 312.951C479.9 322.733 471.573 332.321 462.93 341.715C460.363 344.834 458.596 348.366 457.632 352.312C457.676 354.627 458.685 356.394 460.66 357.611C463.687 359.882 465.958 362.153 469.743 363.667C489.528 370.409 502.143 363.597 507.59 343.229C504.765 330.465 498.204 320.372 487.91 312.951Z" fill="#535353" fill-opacity="0.3"/>
<path opacity="0.956" fill-rule="evenodd" clip-rule="evenodd" d="M371.34 482.507C374.078 482.493 376.601 483.25 378.91 484.778C390.343 493.449 401.95 501.776 413.729 509.757C425.509 501.776 437.116 493.449 448.549 484.778C450.886 482.981 453.41 482.477 456.118 483.264C485.757 514.085 502.914 550.924 507.59 593.778C507.527 596.756 506.77 599.532 505.32 602.104C481.403 616.46 456.928 629.833 431.896 642.222C419.785 649.288 407.674 649.288 395.563 642.222C371.652 630.014 347.936 617.399 324.41 604.375C321.243 601.57 319.729 598.038 319.868 593.778C324.688 550.732 341.845 513.642 371.34 482.507Z" fill="#535353" fill-opacity="0.3"/>
<path opacity="0.834" fill-rule="evenodd" clip-rule="evenodd" d="M310.785 620.271C334.78 631.259 358.498 643.118 381.938 655.847C392.206 660.984 402.804 665.273 413.729 668.715C447.766 655.228 480.566 639.332 512.132 621.028C514.515 619.969 516.533 620.475 518.188 622.542C510.37 637.927 499.773 651.048 486.396 661.903C463.971 676.898 439.749 688.252 413.729 695.965C387.71 688.252 363.488 676.898 341.063 661.903C327.686 651.048 317.089 637.927 309.271 622.542C310.113 621.962 310.617 621.205 310.785 620.271Z" fill="#535353" fill-opacity="0.3"/>
<path opacity="0.919" fill-rule="evenodd" clip-rule="evenodd" d="M554.632 182.868C555.973 184.117 555.495 183.672 554.632 182.868C553.743 183.049 553.713 183.055 554.632 182.868C520.372 204.753 486.057 230.236 454.715 256.292C434.426 274.914 418.783 296.865 407.784 322.146C406.661 323.337 405.4 324.346 404 325.174C402.486 323.156 400.972 323.156 399.458 325.174C398.058 324.346 396.797 323.337 395.673 322.146C384.675 296.865 369.032 274.914 348.743 256.292C317.401 230.236 283.085 204.753 248.826 182.868C249.583 183.625 248.069 182.111 248.826 182.868C247.106 186.307 248.069 184.382 248.826 182.868C248.573 202.051 247.312 225.769 248.069 244.938C249.622 254.643 252.397 263.979 256.396 272.944C242.736 295.762 235.166 320.488 233.687 347.125C234.474 357.963 236.493 368.56 239.743 378.917C203.149 449.673 206.934 518.051 251.097 584.049C261.458 594.917 271.298 606.271 280.618 618.111C277.72 620.877 274.692 620.877 271.534 618.111C258.226 609.34 245.358 600.004 232.93 590.104C211.129 603.405 189.177 616.526 167.076 629.465C165.229 628.879 164.22 627.618 164.048 625.681C172.59 592.738 184.449 560.694 198.111 529.549C191.091 514.773 184.531 498.372 178.43 483.375C178.851 484.423 178.122 482.618 178.43 483.375C173.414 470.895 171.144 458.279 170.104 445.528C149.095 434.651 127.901 424.053 106.521 413.736C103.364 412.16 100.841 409.889 98.9512 406.924C100.259 404.355 102.277 402.589 105.007 401.625C126.161 393.738 146.598 384.403 166.319 373.618C170.23 350.91 176.033 328.707 183.729 307.007C170.147 286.613 156.27 266.429 142.097 246.451C140.3 244.114 139.795 241.59 140.583 238.882C166.614 237.906 193.107 236.896 220.062 235.854C221.323 205.084 222.08 174.302 222.333 143.507C223.342 142.498 224.352 141.489 225.361 140.479C248.293 155.482 271.507 170.117 295 184.382C318.262 172.809 342.736 164.735 368.423 160.16C376.362 142.77 384.689 125.613 393.403 108.688C395.935 104.901 398.712 101.369 401.729 98.0903C404.746 101.369 407.523 104.901 410.055 108.688C418.769 125.613 427.096 142.77 435.034 160.16C460.722 164.735 485.196 172.809 508.458 184.382C532.191 169.724 555.909 155.09 579.611 140.479C580.621 141.489 581.629 142.498 582.639 143.507C582.891 174.302 583.648 205.084 584.909 235.854C611.864 236.896 638.357 237.906 664.389 238.882C665.176 241.59 664.672 244.114 662.875 246.451C648.702 266.429 634.824 286.613 621.243 307.007C628.938 328.707 634.742 350.91 638.652 373.618C658.374 384.403 678.811 393.738 699.965 401.625C702.695 402.589 704.713 404.355 706.021 406.924C704.131 409.889 701.608 412.16 698.451 413.736C677.07 424.053 655.876 434.651 634.868 445.528C633.828 458.279 631.557 470.895 626.541 483.375C626.037 482.871 627.046 483.879 626.541 483.375C620.44 498.372 614.638 514.773 607.618 529.549C621.985 561.322 632.835 594.122 640.166 627.951C636.772 628.973 633.492 628.216 630.326 625.681C611.251 613.242 591.823 601.383 572.041 590.104C569.176 591.158 566.401 592.42 563.715 593.889C552.6 604.504 540.236 613.335 526.625 620.382C525.022 620.185 523.76 619.428 522.84 618.111C532.16 606.271 542 594.917 552.361 584.049C589.011 535.242 599.104 481.247 582.639 422.063C578.94 406.471 572.632 392.089 563.715 378.917C571.162 361.993 572.676 344.583 568.257 326.688C563.079 308.009 556.014 290.094 547.062 272.944C551.06 263.979 553.835 254.643 555.389 244.938C556.146 225.769 554.884 202.051 554.632 182.868ZM385.076 194.979C418.398 193.121 450.694 197.915 481.965 209.361C474.373 216.684 465.795 222.488 456.229 226.771C419.896 214.66 383.562 214.66 347.229 226.771C337.663 222.488 329.085 216.684 321.493 209.361C342.182 201.343 363.376 196.549 385.076 194.979Z" fill="white"/>
<path opacity="0.01" fill-rule="evenodd" clip-rule="evenodd" d="M250.34 184.382C249.331 185.391 248.322 186.401 247.313 187.41C246.981 185.631 247.485 184.117 248.826 182.868C249.745 183.055 250.249 183.56 250.34 184.382Z" fill="black"/>
<path opacity="0.01" fill-rule="evenodd" clip-rule="evenodd" d="M553.118 184.382C553.209 183.56 553.713 183.055 554.632 182.868C555.973 184.117 556.478 185.631 556.146 187.41C555.136 186.401 554.128 185.391 553.118 184.382Z" fill="black"/>
<path opacity="0.915" fill-rule="evenodd" clip-rule="evenodd" d="M273.048 225.257C278.105 234.118 284.665 241.94 292.729 248.722C319.8 263.672 343.266 283.099 363.125 307.007C368.075 315.394 372.617 323.973 376.75 332.743C380.642 350.26 383.67 367.921 385.833 385.729C389.902 399.409 395.201 412.529 401.729 425.09C408.257 412.529 413.555 399.409 417.625 385.729C419.788 367.921 422.816 350.26 426.708 332.743C435.969 310.988 449.845 292.569 468.34 277.486C487.538 265.862 505.452 252.489 522.083 237.368C523.848 232.822 526.372 228.784 529.653 225.257C531.341 227.528 532.602 230.051 533.437 232.826C531.831 250.163 525.271 265.302 513.757 278.243C527.85 292.304 537.184 308.957 541.764 328.201C544.271 373.886 522.825 399.622 477.423 405.41C462.298 404.662 448.926 399.616 437.305 390.271C433.855 395.902 430.575 401.707 427.465 407.68C457.096 432.666 488.384 434.685 521.326 413.736C526.318 410.262 530.859 406.224 534.951 401.625C536.895 400.589 538.662 400.842 540.25 402.382C567.111 466.394 560.298 526.445 519.812 582.535C517.684 584.303 515.919 583.799 514.514 581.021C511.142 525.833 488.434 480.417 446.389 444.771C432.544 456.597 417.657 466.69 401.729 475.048C385.801 466.69 370.914 456.597 357.069 444.771C314.827 481.82 291.109 528.247 285.916 584.048C264.698 558.228 252.083 528.454 248.069 494.729C244.528 462.491 249.574 431.709 263.208 402.382C264.796 400.842 266.563 400.589 268.507 401.625C292.479 425.785 320.737 432.849 353.285 422.819C361.266 418.367 368.835 413.321 375.993 407.68C372.883 401.707 369.603 395.902 366.153 390.271C339.454 410.19 312.456 410.442 285.16 391.028C264.156 371.915 256.839 348.45 263.208 320.632C268.564 304.377 277.395 290.248 289.701 278.243C275.43 262.969 269.878 245.308 273.048 225.257ZM324.521 300.951C316.415 309.58 310.864 319.674 307.868 331.229C313.315 351.597 325.93 358.409 345.715 351.667C349.5 349.396 351.771 347.882 354.798 345.611C356.773 344.394 357.782 342.627 357.826 340.312C349.804 325.964 339.713 313.096 327.548 301.708C326.649 301.006 325.639 300.753 324.521 300.951ZM475.91 300.951C467.9 310.733 459.573 320.321 450.93 329.715C448.363 332.834 446.596 336.366 445.632 340.312C445.676 342.627 446.685 344.394 448.66 345.611C451.687 347.882 453.958 350.153 457.743 351.667C477.528 358.409 490.143 351.597 495.59 331.229C492.765 318.465 486.204 308.372 475.91 300.951Z" fill="white"/>
<path opacity="0.956" fill-rule="evenodd" clip-rule="evenodd" d="M359.34 470.507C362.078 470.493 364.601 471.25 366.91 472.778C378.343 481.449 389.95 489.776 401.729 497.757C413.509 489.776 425.116 481.449 436.549 472.778C438.886 470.981 441.41 470.477 444.118 471.264C473.757 502.085 490.914 538.924 495.59 581.778C495.527 584.756 494.77 587.532 493.32 590.104C469.403 604.46 444.928 617.833 419.896 630.222C407.785 637.288 395.674 637.288 383.563 630.222C359.652 618.014 335.936 605.399 312.41 592.375C309.243 589.57 307.729 586.038 307.868 581.778C312.688 538.732 329.845 501.642 359.34 470.507Z" fill="white"/>
<path opacity="0.834" fill-rule="evenodd" clip-rule="evenodd" d="M298.785 608.271C322.78 619.259 346.498 631.118 369.938 643.847C380.206 648.984 390.804 653.273 401.729 656.715C435.766 643.228 468.566 627.332 500.132 609.028C502.515 607.969 504.533 608.475 506.188 610.542C498.37 625.927 487.773 639.048 474.396 649.903C451.971 664.898 427.749 676.252 401.729 683.965C375.71 676.252 351.488 664.898 329.063 649.903C315.686 639.048 305.089 625.927 297.271 610.542C298.113 609.962 298.617 609.205 298.785 608.271Z" fill="white"/>
<defs>
<filter id="filter0_d_425_200" x="0" y="0" width="808" height="808" filterUnits="userSpaceOnUse" color-interpolation-filters="sRGB">
<feFlood flood-opacity="0" result="BackgroundImageFix"/>
<feColorMatrix in="SourceAlpha" type="matrix" values="0 0 0 0 0 0 0 0 0 0 0 0 0 0 0 0 0 0 127 0" result="hardAlpha"/>
<feOffset dy="4"/>
<feGaussianBlur stdDeviation="2"/>
<feComposite in2="hardAlpha" operator="out"/>
<feColorMatrix type="matrix" values="0 0 0 0 0 0 0 0 0 0 0 0 0 0 0 0 0 0 0.25 0"/>
<feBlend mode="normal" in2="BackgroundImageFix" result="effect1_dropShadow_425_200"/>
<feBlend mode="normal" in="SourceGraphic" in2="effect1_dropShadow_425_200" result="shape"/>
</filter>
<radialGradient id="paint0_radial_425_200" cx="0" cy="0" r="1" gradientUnits="userSpaceOnUse" gradientTransform="translate(-33.8571 -101.071) rotate(47.0819) scale(1230.42)">
<stop stop-color="#434141"/>
<stop offset="0.449224" stop-color="#131313"/>
</radialGradient>
</defs>
</svg>
