<svg width="800" height="800" viewBox="0 0 800 800" fill="none" xmlns="http://www.w3.org/2000/svg">
<rect width="800" height="800" rx="400" fill="url(#paint0_radial_410_138)"/>
<path opacity="0.919" fill-rule="evenodd" clip-rule="evenodd" d="M562.632 194.868C563.495 195.672 563.973 196.117 562.632 194.868C561.713 195.055 561.743 195.049 562.632 194.868C528.372 216.753 494.057 242.236 462.715 268.292C442.426 286.914 426.783 308.865 415.784 334.146C414.661 335.337 413.4 336.346 412 337.174C410.486 335.156 408.972 335.156 407.458 337.174C406.058 336.346 404.797 335.337 403.673 334.146C392.675 308.865 377.032 286.914 356.743 268.292C325.401 242.236 291.085 216.753 256.826 194.868C256.069 194.111 257.583 195.625 256.826 194.868C255.106 198.307 256.069 196.382 256.826 194.868C256.573 214.051 255.312 237.769 256.069 256.938C257.622 266.643 260.397 275.979 264.396 284.944C250.736 307.762 243.166 332.488 241.687 359.125C242.474 369.963 244.493 380.56 247.743 390.917C211.149 461.673 214.934 530.051 259.097 596.049C269.458 606.917 279.298 618.271 288.618 630.111C285.72 632.877 282.692 632.877 279.534 630.111C266.226 621.34 253.358 612.004 240.93 602.104C219.129 615.405 197.177 628.526 175.076 641.465C173.229 640.879 172.22 639.618 172.048 637.681C180.59 604.738 192.449 572.694 206.111 541.549C199.091 526.773 192.531 510.372 186.43 495.375C186.122 494.618 186.851 496.423 186.43 495.375C181.414 482.895 179.144 470.279 178.104 457.528C157.095 446.651 135.901 436.053 114.521 425.736C111.364 424.16 108.841 421.889 106.951 418.924C108.259 416.355 110.277 414.589 113.007 413.625C134.161 405.738 154.598 396.403 174.319 385.618C178.23 362.91 184.033 340.707 191.729 319.007C178.147 298.613 164.27 278.429 150.097 258.451C148.3 256.114 147.795 253.59 148.583 250.882C174.614 249.906 201.107 248.896 228.062 247.854C229.323 217.084 230.08 186.302 230.333 155.507C231.342 154.498 232.352 153.489 233.361 152.479C256.293 167.482 279.507 182.117 303 196.382C326.262 184.809 350.736 176.735 376.423 172.16C384.362 154.77 392.689 137.613 401.403 120.688C403.935 116.901 406.712 113.369 409.729 110.09C412.746 113.369 415.523 116.901 418.055 120.688C426.769 137.613 435.096 154.77 443.034 172.16C468.722 176.735 493.196 184.809 516.458 196.382C540.191 181.724 563.909 167.09 587.611 152.479C588.621 153.489 589.629 154.498 590.639 155.507C590.891 186.302 591.648 217.084 592.909 247.854C619.864 248.896 646.357 249.906 672.389 250.882C673.176 253.59 672.672 256.114 670.875 258.451C656.702 278.429 642.824 298.613 629.243 319.007C636.938 340.707 642.742 362.91 646.653 385.618C666.374 396.403 686.811 405.738 707.965 413.625C710.695 414.589 712.713 416.355 714.021 418.924C712.131 421.889 709.608 424.16 706.451 425.736C685.07 436.053 663.876 446.651 642.868 457.528C641.828 470.279 639.557 482.895 634.541 495.375C634.037 494.871 635.046 495.879 634.541 495.375C628.44 510.372 622.638 526.773 615.618 541.549C629.985 573.322 640.835 606.122 648.166 639.951C644.772 640.973 641.492 640.216 638.326 637.681C619.251 625.242 599.823 613.383 580.041 602.104C577.176 603.158 574.401 604.42 571.715 605.889C560.6 616.504 548.236 625.335 534.625 632.382C533.022 632.185 531.76 631.428 530.84 630.111C540.16 618.271 550 606.917 560.361 596.049C597.011 547.242 607.104 493.247 590.639 434.063C586.94 418.471 580.632 404.089 571.715 390.917C579.162 373.993 580.676 356.583 576.257 338.688C571.079 320.009 564.014 302.094 555.062 284.944C559.06 275.979 561.835 266.643 563.389 256.938C564.146 237.769 562.884 214.051 562.632 194.868ZM393.076 206.979C426.398 205.121 458.694 209.915 489.965 221.361C482.373 228.684 473.795 234.488 464.229 238.771C427.896 226.66 391.562 226.66 355.229 238.771C345.663 234.488 337.085 228.684 329.493 221.361C350.182 213.343 371.376 208.549 393.076 206.979Z" fill="#535353" fill-opacity="0.3"/>
<path opacity="0.01" fill-rule="evenodd" clip-rule="evenodd" d="M258.34 196.382C257.331 197.391 256.322 198.401 255.313 199.41C254.981 197.631 255.485 196.117 256.826 194.868C257.745 195.055 258.249 195.56 258.34 196.382Z" fill="black"/>
<path opacity="0.01" fill-rule="evenodd" clip-rule="evenodd" d="M561.118 196.382C561.209 195.56 561.713 195.055 562.632 194.868C563.973 196.117 564.478 197.631 564.146 199.41C563.136 198.401 562.128 197.391 561.118 196.382Z" fill="black"/>
<path opacity="0.915" fill-rule="evenodd" clip-rule="evenodd" d="M281.048 237.257C286.105 246.118 292.665 253.94 300.729 260.722C327.8 275.672 351.266 295.099 371.125 319.007C376.075 327.394 380.617 335.973 384.75 344.743C388.642 362.26 391.67 379.921 393.833 397.729C397.902 411.409 403.201 424.529 409.729 437.09C416.257 424.529 421.555 411.409 425.625 397.729C427.788 379.921 430.816 362.26 434.708 344.743C443.969 322.988 457.845 304.569 476.34 289.486C495.538 277.862 513.452 264.489 530.083 249.368C531.848 244.822 534.372 240.784 537.653 237.257C539.341 239.528 540.602 242.051 541.437 244.826C539.831 262.163 533.271 277.302 521.757 290.243C535.85 304.304 545.184 320.957 549.764 340.201C552.271 385.886 530.825 411.622 485.423 417.41C470.298 416.662 456.926 411.616 445.305 402.271C441.855 407.902 438.575 413.707 435.465 419.68C465.096 444.666 496.384 446.685 529.326 425.736C534.318 422.262 538.859 418.224 542.951 413.625C544.895 412.589 546.662 412.842 548.25 414.382C575.111 478.394 568.298 538.445 527.812 594.535C525.684 596.303 523.919 595.799 522.514 593.021C519.142 537.833 496.434 492.417 454.389 456.771C440.544 468.597 425.657 478.69 409.729 487.048C393.801 478.69 378.914 468.597 365.069 456.771C322.827 493.82 299.109 540.247 293.916 596.048C272.698 570.228 260.083 540.454 256.069 506.729C252.528 474.491 257.574 443.709 271.208 414.382C272.796 412.842 274.563 412.589 276.507 413.625C300.479 437.785 328.737 444.849 361.285 434.819C369.266 430.367 376.835 425.321 383.993 419.68C380.883 413.707 377.603 407.902 374.153 402.271C347.454 422.19 320.456 422.442 293.16 403.028C272.156 383.915 264.839 360.45 271.208 332.632C276.564 316.377 285.395 302.248 297.701 290.243C283.43 274.969 277.878 257.308 281.048 237.257ZM332.521 312.951C324.415 321.58 318.864 331.674 315.868 343.229C321.315 363.597 333.93 370.409 353.715 363.667C357.5 361.396 359.771 359.882 362.798 357.611C364.773 356.394 365.782 354.627 365.826 352.312C357.804 337.964 347.713 325.096 335.548 313.708C334.649 313.006 333.639 312.753 332.521 312.951ZM483.91 312.951C475.9 322.733 467.573 332.321 458.93 341.715C456.363 344.834 454.596 348.366 453.632 352.312C453.676 354.627 454.685 356.394 456.66 357.611C459.687 359.882 461.958 362.153 465.743 363.667C485.528 370.409 498.143 363.597 503.59 343.229C500.765 330.465 494.204 320.372 483.91 312.951Z" fill="#535353" fill-opacity="0.3"/>
<path opacity="0.956" fill-rule="evenodd" clip-rule="evenodd" d="M367.34 482.507C370.078 482.493 372.601 483.25 374.91 484.778C386.343 493.449 397.95 501.776 409.729 509.757C421.509 501.776 433.116 493.449 444.549 484.778C446.886 482.981 449.41 482.477 452.118 483.264C481.757 514.085 498.914 550.924 503.59 593.778C503.527 596.756 502.77 599.532 501.32 602.104C477.403 616.46 452.928 629.833 427.896 642.222C415.785 649.288 403.674 649.288 391.563 642.222C367.652 630.014 343.936 617.399 320.41 604.375C317.243 601.57 315.729 598.038 315.868 593.778C320.688 550.732 337.845 513.642 367.34 482.507Z" fill="#535353" fill-opacity="0.3"/>
<path opacity="0.834" fill-rule="evenodd" clip-rule="evenodd" d="M306.785 620.271C330.78 631.259 354.498 643.118 377.938 655.847C388.206 660.984 398.804 665.273 409.729 668.715C443.766 655.228 476.566 639.332 508.132 621.028C510.515 619.969 512.533 620.475 514.188 622.542C506.37 637.927 495.773 651.048 482.396 661.903C459.971 676.898 435.749 688.252 409.729 695.965C383.71 688.252 359.488 676.898 337.063 661.903C323.686 651.048 313.089 637.927 305.271 622.542C306.113 621.962 306.617 621.205 306.785 620.271Z" fill="#535353" fill-opacity="0.3"/>
<path opacity="0.919" fill-rule="evenodd" clip-rule="evenodd" d="M550.632 182.868C551.495 183.672 551.973 184.117 550.632 182.868C549.713 183.055 549.743 183.049 550.632 182.868C516.372 204.753 482.057 230.236 450.715 256.292C430.426 274.914 414.783 296.865 403.784 322.146C402.661 323.337 401.4 324.346 400 325.174C398.486 323.156 396.972 323.156 395.458 325.174C394.058 324.346 392.797 323.337 391.673 322.146C380.675 296.865 365.032 274.914 344.743 256.292C313.401 230.236 279.085 204.753 244.826 182.868C244.069 182.111 245.583 183.625 244.826 182.868C243.106 186.307 244.069 184.382 244.826 182.868C244.573 202.051 243.312 225.769 244.069 244.938C245.622 254.643 248.397 263.979 252.396 272.944C238.736 295.762 231.166 320.488 229.687 347.125C230.474 357.963 232.493 368.56 235.743 378.917C199.149 449.673 202.934 518.051 247.097 584.049C257.458 594.917 267.298 606.271 276.618 618.111C273.72 620.877 270.692 620.877 267.534 618.111C254.226 609.34 241.358 600.004 228.93 590.104C207.129 603.405 185.177 616.526 163.076 629.465C161.229 628.879 160.22 627.618 160.048 625.681C168.59 592.738 180.449 560.694 194.111 529.549C187.091 514.773 180.531 498.372 174.43 483.375C174.122 482.618 174.851 484.423 174.43 483.375C169.414 470.895 167.144 458.279 166.104 445.528C145.095 434.651 123.901 424.053 102.521 413.736C99.3639 412.16 96.8407 409.889 94.9512 406.924C96.2586 404.355 98.277 402.589 101.007 401.625C122.161 393.738 142.598 384.403 162.319 373.618C166.23 350.91 172.033 328.707 179.729 307.007C166.147 286.613 152.27 266.429 138.097 246.451C136.3 244.114 135.795 241.59 136.583 238.882C162.614 237.906 189.107 236.896 216.062 235.854C217.323 205.084 218.08 174.302 218.333 143.507C219.342 142.498 220.352 141.489 221.361 140.479C244.293 155.482 267.507 170.117 291 184.382C314.262 172.809 338.736 164.735 364.423 160.16C372.362 142.77 380.689 125.613 389.403 108.688C391.935 104.901 394.712 101.369 397.729 98.0903C400.746 101.369 403.523 104.901 406.055 108.688C414.769 125.613 423.096 142.77 431.034 160.16C456.722 164.735 481.196 172.809 504.458 184.382C528.191 169.724 551.909 155.09 575.611 140.479C576.621 141.489 577.629 142.498 578.639 143.507C578.891 174.302 579.648 205.084 580.909 235.854C607.864 236.896 634.357 237.906 660.389 238.882C661.176 241.59 660.672 244.114 658.875 246.451C644.702 266.429 630.824 286.613 617.243 307.007C624.938 328.707 630.742 350.91 634.653 373.618C654.374 384.403 674.811 393.738 695.965 401.625C698.695 402.589 700.713 404.355 702.021 406.924C700.131 409.889 697.608 412.16 694.451 413.736C673.07 424.053 651.876 434.651 630.868 445.528C629.828 458.279 627.557 470.895 622.541 483.375C622.037 482.871 623.046 483.879 622.541 483.375C616.44 498.372 610.638 514.773 603.618 529.549C617.985 561.322 628.835 594.122 636.166 627.951C632.772 628.973 629.492 628.216 626.326 625.681C607.251 613.242 587.823 601.383 568.041 590.104C565.176 591.158 562.401 592.42 559.715 593.889C548.6 604.504 536.236 613.335 522.625 620.382C521.022 620.185 519.76 619.428 518.84 618.111C528.16 606.271 538 594.917 548.361 584.049C585.011 535.242 595.104 481.247 578.639 422.063C574.94 406.471 568.632 392.089 559.715 378.917C567.162 361.993 568.676 344.583 564.257 326.688C559.079 308.009 552.014 290.094 543.062 272.944C547.06 263.979 549.835 254.643 551.389 244.938C552.146 225.769 550.884 202.051 550.632 182.868ZM381.076 194.979C414.398 193.121 446.694 197.915 477.965 209.361C470.373 216.684 461.795 222.488 452.229 226.771C415.896 214.66 379.562 214.66 343.229 226.771C333.663 222.488 325.085 216.684 317.493 209.361C338.182 201.343 359.376 196.549 381.076 194.979Z" fill="white"/>
<path opacity="0.01" fill-rule="evenodd" clip-rule="evenodd" d="M246.34 184.382C245.331 185.391 244.322 186.401 243.313 187.41C242.981 185.631 243.485 184.117 244.826 182.868C245.745 183.055 246.249 183.56 246.34 184.382Z" fill="black"/>
<path opacity="0.01" fill-rule="evenodd" clip-rule="evenodd" d="M549.118 184.382C549.209 183.56 549.713 183.055 550.632 182.868C551.973 184.117 552.478 185.631 552.146 187.41C551.136 186.401 550.128 185.391 549.118 184.382Z" fill="black"/>
<path opacity="0.915" fill-rule="evenodd" clip-rule="evenodd" d="M269.048 225.257C274.105 234.118 280.665 241.94 288.729 248.722C315.8 263.672 339.266 283.099 359.125 307.007C364.075 315.394 368.617 323.973 372.75 332.743C376.642 350.26 379.67 367.921 381.833 385.729C385.902 399.409 391.201 412.529 397.729 425.09C404.257 412.529 409.555 399.409 413.625 385.729C415.788 367.921 418.816 350.26 422.708 332.743C431.969 310.988 445.845 292.569 464.34 277.486C483.538 265.862 501.452 252.489 518.083 237.368C519.848 232.822 522.372 228.784 525.653 225.257C527.341 227.528 528.602 230.051 529.437 232.826C527.831 250.163 521.271 265.302 509.757 278.243C523.85 292.304 533.184 308.957 537.764 328.201C540.271 373.886 518.825 399.622 473.423 405.41C458.298 404.662 444.926 399.616 433.305 390.271C429.855 395.902 426.575 401.707 423.465 407.68C453.096 432.666 484.384 434.685 517.326 413.736C522.318 410.262 526.859 406.224 530.951 401.625C532.895 400.589 534.662 400.842 536.25 402.382C563.111 466.394 556.298 526.445 515.812 582.535C513.684 584.303 511.919 583.799 510.514 581.021C507.142 525.833 484.434 480.417 442.389 444.771C428.544 456.597 413.657 466.69 397.729 475.048C381.801 466.69 366.914 456.597 353.069 444.771C310.827 481.82 287.109 528.247 281.916 584.048C260.698 558.228 248.083 528.454 244.069 494.729C240.528 462.491 245.574 431.709 259.208 402.382C260.796 400.842 262.563 400.589 264.507 401.625C288.479 425.785 316.737 432.849 349.285 422.819C357.266 418.367 364.835 413.321 371.993 407.68C368.883 401.707 365.603 395.902 362.153 390.271C335.454 410.19 308.456 410.442 281.16 391.028C260.156 371.915 252.839 348.45 259.208 320.632C264.564 304.377 273.395 290.248 285.701 278.243C271.43 262.969 265.878 245.308 269.048 225.257ZM320.521 300.951C312.415 309.58 306.864 319.674 303.868 331.229C309.315 351.597 321.93 358.409 341.715 351.667C345.5 349.396 347.771 347.882 350.798 345.611C352.773 344.394 353.782 342.627 353.826 340.312C345.804 325.964 335.713 313.096 323.548 301.708C322.649 301.006 321.639 300.753 320.521 300.951ZM471.91 300.951C463.9 310.733 455.573 320.321 446.93 329.715C444.363 332.834 442.596 336.366 441.632 340.312C441.676 342.627 442.685 344.394 444.66 345.611C447.687 347.882 449.958 350.153 453.743 351.667C473.528 358.409 486.143 351.597 491.59 331.229C488.765 318.465 482.204 308.372 471.91 300.951Z" fill="white"/>
<path opacity="0.956" fill-rule="evenodd" clip-rule="evenodd" d="M355.34 470.507C358.078 470.493 360.601 471.25 362.91 472.778C374.343 481.449 385.95 489.776 397.729 497.757C409.509 489.776 421.116 481.449 432.549 472.778C434.886 470.981 437.41 470.477 440.118 471.264C469.757 502.085 486.914 538.924 491.59 581.778C491.527 584.756 490.77 587.532 489.32 590.104C465.403 604.46 440.928 617.833 415.896 630.222C403.785 637.288 391.674 637.288 379.563 630.222C355.652 618.014 331.936 605.399 308.41 592.375C305.243 589.57 303.729 586.038 303.868 581.778C308.688 538.732 325.845 501.642 355.34 470.507Z" fill="white"/>
<path opacity="0.834" fill-rule="evenodd" clip-rule="evenodd" d="M294.785 608.271C318.78 619.259 342.498 631.118 365.938 643.847C376.206 648.984 386.804 653.273 397.729 656.715C431.766 643.228 464.566 627.332 496.132 609.028C498.515 607.969 500.533 608.475 502.188 610.542C494.37 625.927 483.773 639.048 470.396 649.903C447.971 664.898 423.749 676.252 397.729 683.965C371.71 676.252 347.488 664.898 325.063 649.903C311.686 639.048 301.089 625.927 293.271 610.542C294.113 609.962 294.617 609.205 294.785 608.271Z" fill="white"/>
<defs>
<radialGradient id="paint0_radial_410_138" cx="0" cy="0" r="1" gradientUnits="userSpaceOnUse" gradientTransform="translate(-37.8571 -101.071) rotate(47.0819) scale(1230.42)">
<stop stop-color="#FF4500"/>
<stop offset="0.567308" stop-color="#FFA500"/>
<stop offset="0.9375" stop-color="#FFD700"/>
</radialGradient>
</defs>
</svg>
