<svg width="128" height="128" viewBox="0 0 128 128" fill="none" xmlns="http://www.w3.org/2000/svg">
<rect width="128" height="128" rx="8" transform="matrix(1 0 0 -1 0 128)" fill="white"/>
<g clip-path="url(#clip0_40_33)">
<path fill-rule="evenodd" clip-rule="evenodd" d="M52.8886 80.6294C56.1776 82.827 60.0444 84 64 84V104C56.0888 104 48.3552 101.654 41.7772 97.2588C35.1992 92.8635 30.0724 86.6164 27.0448 79.3074C24.0174 71.9984 23.2252 63.9556 24.7686 56.1964C26.312 48.4372 30.1216 41.3098 35.7158 35.7158C41.3098 30.1216 48.4372 26.312 56.1964 24.7686C63.9556 23.2252 71.9984 24.0174 79.3074 27.0448C86.6164 30.0724 92.8635 35.1992 97.2588 41.7772C101.654 48.3552 104 56.0888 104 64H84C84 60.0444 82.827 56.1776 80.6294 52.8886C78.4318 49.5996 75.3082 47.0362 71.6536 45.5224C67.9992 44.0086 63.9778 43.6126 60.0982 44.3844C56.2186 45.156 52.655 47.0608 49.8578 49.8578C47.0608 52.655 45.156 56.2186 44.3844 60.0982C43.6126 63.9778 44.0086 67.9992 45.5224 71.6536C47.0362 75.3082 49.5996 78.4318 52.8886 80.6294Z" fill="#6849FF"/>
<path d="M104 86C104 76.0589 95.9408 68 85.9999 68H68V86C68 95.9411 76.0589 104 85.9999 104C95.9408 104 104 95.9411 104 86Z" fill="#FFC107"/>
</g>
<defs>
<clipPath id="clip0_40_33">
<rect width="80" height="80" fill="white" transform="matrix(-1 0 0 -1 104 104)"/>
</clipPath>
</defs>
</svg>
