<svg width="245" height="96" viewBox="0 0 245 96" fill="none" xmlns="http://www.w3.org/2000/svg">
<rect width="245" height="96" rx="8" fill="white"/>
<g clip-path="url(#clip0_425_2)">
<path fill-rule="evenodd" clip-rule="evenodd" d="M44.8886 64.6294C48.1776 66.827 52.0444 68 56 68V88C48.0888 88 40.3552 85.654 33.7772 81.2588C27.1992 76.8635 22.0724 70.6164 19.0448 63.3074C16.0174 55.9984 15.2252 47.9556 16.7686 40.1964C18.312 32.4372 22.1216 25.3098 27.7158 19.7158C33.3098 14.1216 40.4372 10.312 48.1964 8.7686C55.9556 7.2252 63.9984 8.0174 71.3074 11.0448C78.6164 14.0724 84.8635 19.1992 89.2588 25.7772C93.654 32.3552 96 40.0888 96 48H76C76 44.0444 74.827 40.1776 72.6294 36.8886C70.4318 33.5996 67.3082 31.0362 63.6536 29.5224C59.9992 28.0086 55.9778 27.6126 52.0982 28.3844C48.2186 29.156 44.655 31.0608 41.8578 33.8578C39.0608 36.655 37.156 40.2186 36.3844 44.0982C35.6126 47.9778 36.0086 51.9992 37.5224 55.6536C39.0362 59.3082 41.5996 62.4318 44.8886 64.6294Z" fill="#6849FF"/>
<path d="M96 70C96 60.0589 87.9408 52 77.9999 52H60V70C60 79.9411 68.0589 88 77.9999 88C87.9408 88 96 79.9411 96 70Z" fill="#FFC107"/>
</g>
<path d="M135.409 30.5909L138.477 55.2045H138.75L150 30.5909H160.705L143.386 65.5H130.432L124.705 30.5909H135.409ZM192.682 48.6591C192.045 52.4545 190.784 55.6364 188.898 58.2045C187.011 60.7727 184.722 62.7102 182.028 64.017C179.335 65.3239 176.455 65.9773 173.386 65.9773C170.114 65.9773 167.273 65.267 164.864 63.8466C162.455 62.4261 160.699 60.3466 159.597 57.608C158.494 54.8693 158.273 51.5227 158.932 47.5682C159.545 43.7727 160.795 40.5795 162.682 37.9886C164.568 35.3977 166.869 33.4375 169.585 32.108C172.301 30.7784 175.205 30.1136 178.295 30.1136C181.545 30.1136 184.369 30.8295 186.767 32.2614C189.176 33.6932 190.926 35.7898 192.017 38.5511C193.119 41.3125 193.341 44.6818 192.682 48.6591ZM183.136 47.5682C183.455 45.5682 183.477 43.8864 183.205 42.5227C182.932 41.1477 182.358 40.1136 181.483 39.4205C180.608 38.7159 179.432 38.3636 177.955 38.3636C176.273 38.3636 174.784 38.7727 173.489 39.5909C172.193 40.4091 171.119 41.5852 170.267 43.1193C169.415 44.6534 168.818 46.5 168.477 48.6591C168.114 50.6818 168.08 52.3636 168.375 53.7045C168.682 55.0455 169.284 56.0511 170.182 56.7216C171.091 57.392 172.273 57.7273 173.727 57.7273C175.386 57.7273 176.852 57.3295 178.125 56.5341C179.409 55.7386 180.472 54.5852 181.312 53.0739C182.165 51.5625 182.773 49.7273 183.136 47.5682ZM220.726 30.5909H230.203L226.487 52.9545C226.055 55.6136 225.044 57.9148 223.453 59.858C221.874 61.7898 219.862 63.2841 217.419 64.3409C214.976 65.3864 212.26 65.9091 209.271 65.9091C206.26 65.9091 203.714 65.3864 201.635 64.3409C199.555 63.2841 198.044 61.7898 197.101 59.858C196.169 57.9148 195.919 55.6136 196.351 52.9545L200.067 30.5909H209.544L205.964 52.1364C205.794 53.2159 205.879 54.1761 206.22 55.017C206.561 55.858 207.112 56.5227 207.874 57.0114C208.635 57.4886 209.555 57.7273 210.635 57.7273C211.726 57.7273 212.732 57.4886 213.652 57.0114C214.584 56.5227 215.357 55.858 215.97 55.017C216.584 54.1761 216.976 53.2159 217.146 52.1364L220.726 30.5909Z" fill="#020617"/>
<defs>
<clipPath id="clip0_425_2">
<rect width="80" height="80" fill="white" transform="matrix(-1 0 0 -1 96 88)"/>
</clipPath>
</defs>
</svg>
